<svg viewBox="0 -5 25 35" fill="none" xmlns="http://www.w3.org/2000/svg"><g id="SVGRepo_tracerCarrier" stroke-linecap="round" stroke-linejoin="round"></g><g id="SVGRepo_iconCarrier"> <path d="M17 2L21 6M21 6L17 10M21 6H7.8C6.11984 6 5.27976 6 4.63803 6.32698C4.07354 6.6146 3.6146 7.07354 3.32698 7.63803C3 8.27976 3 9.11984 3 10.8V11M3 18H16.2C17.8802 18 18.7202 18 19.362 17.673C19.9265 17.3854 20.3854 16.9265 20.673 16.362C21 15.7202 21 14.8802 21 13.2V13M3 18L7 22M3 18L7 14" stroke="#778297" stroke-width="1.2" stroke-linecap="round" stroke-linejoin="round"></path> </g></svg>
