<?xml version="1.0" encoding="utf-8"?>
<!-- Generator: Adobe Illustrator 16.0.0, SVG Export Plug-In . SVG Version: 6.00 Build 0)  -->
<!DOCTYPE svg PUBLIC "-//W3C//DTD SVG 1.1//EN" "http://www.w3.org/Graphics/SVG/1.1/DTD/svg11.dtd">
<svg version="1.1" id="Warstwa_1" xmlns="http://www.w3.org/2000/svg" xmlns:xlink="http://www.w3.org/1999/xlink" x="0px" y="0px"
	 width="452.832px" height="39.833px" viewBox="0 0 452.832 39.833" enable-background="new 0 0 452.832 39.833"
	 xml:space="preserve">
<g>
	<g>
		<path fill="#9A9999" d="M67.423,19.091c0,6.074-3.754,9.638-10.138,9.638h-5.899V9.485h5.899
			C63.618,9.485,67.423,13.015,67.423,19.091 M55.244,13.151v11.936h1.918c4.186,0,6.352-2.199,6.352-5.974
			c0-3.79-2.191-5.962-6.352-5.962H55.244z"/>
		<path fill="#9A9999" d="M88.365,19.142c0,5.735-4.085,9.923-9.533,9.923c-5.474,0-9.507-4.188-9.507-9.923
			c0-5.782,4.033-9.995,9.507-9.995C84.281,9.146,88.365,13.359,88.365,19.142 M73.206,19.142c0,3.665,2.319,6.287,5.626,6.287
			c3.303,0,5.622-2.622,5.622-6.287c0-3.716-2.319-6.359-5.622-6.359C75.526,12.782,73.206,15.426,73.206,19.142"/>
		<polygon fill="#9A9999" points="98.711,20.844 98.711,28.729 94.877,28.729 94.877,20.924 88.096,9.486 92.556,9.486
			96.768,16.918 100.982,9.486 105.444,9.486 		"/>
		<polygon fill="#9A9999" points="137.235,29.064 137.133,29.064 126.188,17.991 126.188,28.729 122.33,28.729 122.33,9.146
			122.43,9.146 133.375,20.214 133.375,9.486 137.235,9.486 		"/>
		<polygon fill="#9A9999" points="119.573,28.729 110.897,28.729 107.394,28.729 107.394,9.485 119.374,9.485 119.374,13.123
			110.897,13.123 110.897,17.286 117.272,17.286 117.272,20.661 110.897,20.661 110.897,25.086 119.573,25.086 		"/>
		<path fill="#9A9999" d="M153.053,11.159l-1.99,3.302c-1.136-0.947-2.551-1.679-4.516-1.679c-1.642,0-2.648,0.681-2.648,2.094
			c0,1.1,0.707,1.651,3.479,2.201c4.792,1.049,6.306,2.853,6.306,5.81c0,3.691-2.646,6.178-7.012,6.178
			c-2.825,0-5.348-0.915-7.187-2.562l2.093-3.326c1.235,1.361,3.327,2.254,5.219,2.254c1.945,0,3.053-0.762,3.053-2.174
			c0-1.129-0.832-1.754-3.579-2.305c-4.793-1.076-6.229-3.062-6.229-5.889c0-3.46,2.544-5.916,6.528-5.916
			C149.219,9.146,151.513,9.928,153.053,11.159"/>
		<path fill="#9A9999" d="M186.177,12.023l-2.421,2.904c-0.982-1.204-2.396-2.146-4.288-2.146c-3.404,0-5.626,2.644-5.626,6.309
			c0,3.667,2.222,6.338,5.626,6.338c1.917,0,3.354-0.973,4.338-2.202l2.396,2.905c-1.842,2.098-4.035,2.933-6.733,2.933
			c-5.573,0-9.504-4.267-9.504-9.974c0-5.68,3.931-9.944,9.504-9.944C182.396,9.146,184.387,10.108,186.177,12.023"/>
		<polygon fill="#9A9999" points="168.29,25.086 159.613,25.086 159.613,20.663 165.991,20.663 165.991,17.286 159.613,17.286
			159.613,13.123 168.093,13.123 168.093,9.486 156.112,9.486 156.112,28.729 159.613,28.729 168.29,28.729 		"/>
	</g>
	<g>
		<polygon fill="#343434" points="30.175,2.389 8.387,2.389 0.648,2.389 13.919,19.832 7.073,27.997 13.803,27.997 18.583,19.832
			11.088,7.028 11.099,7.028 26.158,7.028 36.334,19.832 26.158,32.64 21.996,32.64 29.49,19.832 24.713,11.662 19.283,11.662
			25.135,19.832 12.551,37.275 30.175,37.275 40.382,19.832 		"/>
		<polygon fill="#9A6634" points="31.417,0.958 9.019,0.958 3.426,0.958 6.215,5.979 13.919,19.832 9.007,28.667 14.587,28.667
			19.501,19.832 11.796,5.979 11.809,5.979 28.628,5.979 36.334,19.832 28.628,33.688 23.011,33.688 30.717,19.832 25.803,10.995
			20.221,10.995 25.135,19.832 17.429,33.688 14.64,38.708 31.417,38.708 41.915,19.832 		"/>
		<polygon fill="#F4983A" points="31.417,0.958 9.019,0.958 3.426,0.958 6.215,5.979 13.917,19.832 19.5,19.832 11.796,5.979
			11.809,5.979 28.628,5.979 36.332,19.832 41.913,19.832 		"/>
		<polygon fill="#F49739" points="25.803,10.995 20.221,10.995 25.132,19.832 30.715,19.832 		"/>
	</g>
</g>
<rect x="230.5" y="1.555" fill="#F4983A" width="1" height="35.834"/>
<g enable-background="new    ">
	<path fill="#9A9A9A" d="M275.836,2.474h1.348l5.143,12.589h-1.703l-1.488-3.688h-5.285l-1.471,3.688h-1.703L275.836,2.474z
		 M278.78,10.133l-2.27-5.815l-2.34,5.815H278.78z"/>
	<path fill="#9A9A9A" d="M288.744,15.241c-0.769,0-1.445-0.189-2.03-0.567c-0.585-0.379-1.049-0.857-1.392-1.437v5.603h-1.561V5.807
		h1.383v1.738c0.367-0.567,0.843-1.025,1.428-1.375c0.585-0.349,1.232-0.522,1.941-0.522c0.639,0,1.224,0.13,1.756,0.39
		c0.531,0.261,0.992,0.612,1.383,1.056c0.391,0.442,0.694,0.954,0.913,1.533s0.328,1.183,0.328,1.809
		c0,0.662-0.101,1.285-0.302,1.871c-0.201,0.585-0.484,1.093-0.852,1.524c-0.365,0.432-0.803,0.774-1.312,1.028
		S289.36,15.241,288.744,15.241z M288.266,13.893c0.461,0,0.877-0.098,1.25-0.293s0.691-0.455,0.957-0.78
		c0.267-0.325,0.471-0.694,0.612-1.108c0.142-0.413,0.212-0.839,0.212-1.276c0-0.461-0.082-0.901-0.248-1.321
		c-0.165-0.419-0.39-0.785-0.674-1.099c-0.283-0.313-0.617-0.562-1.002-0.745c-0.384-0.183-0.801-0.274-1.25-0.274
		c-0.283,0-0.576,0.056-0.877,0.168s-0.585,0.261-0.852,0.443c-0.266,0.184-0.496,0.402-0.691,0.656s-0.322,0.523-0.381,0.807v2.642
		c0.13,0.308,0.295,0.595,0.496,0.86s0.432,0.496,0.691,0.691s0.538,0.349,0.834,0.461
		C287.639,13.836,287.947,13.893,288.266,13.893z"/>
	<path fill="#9A9A9A" d="M299.791,15.241c-0.77,0-1.445-0.189-2.031-0.567c-0.584-0.379-1.049-0.857-1.391-1.437v5.603h-1.561V5.807
		h1.383v1.738c0.366-0.567,0.842-1.025,1.428-1.375c0.584-0.349,1.232-0.522,1.941-0.522c0.639,0,1.223,0.13,1.755,0.39
		c0.532,0.261,0.993,0.612,1.384,1.056c0.39,0.442,0.693,0.954,0.912,1.533s0.328,1.183,0.328,1.809c0,0.662-0.1,1.285-0.301,1.871
		c-0.201,0.585-0.485,1.093-0.852,1.524s-0.804,0.774-1.312,1.028C300.967,15.113,300.406,15.241,299.791,15.241z M299.313,13.893
		c0.461,0,0.877-0.098,1.25-0.293c0.372-0.195,0.691-0.455,0.957-0.78s0.47-0.694,0.611-1.108c0.143-0.413,0.213-0.839,0.213-1.276
		c0-0.461-0.082-0.901-0.248-1.321c-0.166-0.419-0.391-0.785-0.674-1.099s-0.617-0.562-1.002-0.745
		c-0.385-0.183-0.801-0.274-1.25-0.274c-0.283,0-0.576,0.056-0.877,0.168c-0.302,0.112-0.586,0.261-0.852,0.443
		c-0.266,0.184-0.496,0.402-0.691,0.656s-0.322,0.523-0.381,0.807v2.642c0.129,0.308,0.295,0.595,0.496,0.86
		s0.432,0.496,0.691,0.691s0.537,0.349,0.834,0.461C298.686,13.836,298.992,13.893,299.313,13.893z"/>
	<path fill="#9A9A9A" d="M305.89,2.12h1.56v10.55c0,0.343,0.092,0.611,0.275,0.807s0.44,0.293,0.771,0.293
		c0.13,0,0.283-0.021,0.461-0.062c0.178-0.041,0.343-0.092,0.496-0.15l0.248,1.259c-0.26,0.106-0.566,0.195-0.922,0.266
		c-0.354,0.071-0.668,0.106-0.939,0.106c-0.603,0-1.078-0.171-1.428-0.514c-0.348-0.343-0.522-0.822-0.522-1.437V2.12z"/>
	<path fill="#9A9A9A" d="M310.926,4.07V2.12h1.561v1.95H310.926z M310.926,15.063V5.807h1.561v9.256H310.926z"/>
	<path fill="#9A9A9A" d="M314.383,10.417c0-0.65,0.112-1.265,0.337-1.844s0.544-1.085,0.958-1.517
		c0.413-0.431,0.906-0.773,1.48-1.028c0.572-0.254,1.215-0.381,1.924-0.381c0.922,0,1.717,0.204,2.385,0.611
		c0.668,0.408,1.173,0.955,1.516,1.641l-1.525,0.479c-0.236-0.438-0.566-0.777-0.992-1.02s-0.898-0.363-1.418-0.363
		c-0.426,0-0.828,0.086-1.207,0.257c-0.378,0.172-0.703,0.411-0.975,0.718c-0.271,0.308-0.487,0.668-0.646,1.082
		c-0.16,0.414-0.24,0.869-0.24,1.365c0,0.484,0.083,0.939,0.248,1.365c0.166,0.426,0.388,0.795,0.666,1.108
		c0.277,0.313,0.602,0.559,0.975,0.735c0.372,0.178,0.771,0.267,1.197,0.267c0.271,0,0.541-0.038,0.807-0.115
		s0.508-0.181,0.727-0.311s0.41-0.28,0.576-0.452c0.166-0.171,0.283-0.357,0.355-0.559l1.524,0.461
		c-0.142,0.343-0.341,0.656-0.595,0.939c-0.254,0.284-0.553,0.526-0.895,0.728c-0.344,0.201-0.725,0.36-1.145,0.479
		s-0.859,0.178-1.32,0.178c-0.697,0-1.336-0.131-1.915-0.391s-1.075-0.608-1.489-1.046s-0.736-0.949-0.967-1.534
		S314.383,11.068,314.383,10.417z"/>
	<path fill="#9A9A9A" d="M327.202,15.241c-0.438,0-0.845-0.074-1.224-0.222c-0.378-0.148-0.706-0.352-0.984-0.612
		c-0.277-0.26-0.496-0.564-0.655-0.913s-0.239-0.729-0.239-1.144c0-0.426,0.094-0.812,0.283-1.161s0.458-0.647,0.807-0.896
		s0.763-0.443,1.242-0.585c0.479-0.143,1.001-0.213,1.568-0.213c0.449,0,0.904,0.041,1.365,0.124s0.869,0.195,1.224,0.337V9.211
		c0-0.756-0.213-1.35-0.638-1.781c-0.426-0.432-1.029-0.647-1.809-0.647c-0.935,0-1.916,0.36-2.943,1.081l-0.515-1.011
		c1.194-0.804,2.394-1.205,3.599-1.205c1.219,0,2.166,0.325,2.847,0.975c0.68,0.65,1.02,1.566,1.02,2.749v3.776
		c0,0.366,0.165,0.556,0.497,0.567v1.348c-0.166,0.023-0.303,0.041-0.408,0.053c-0.107,0.012-0.219,0.019-0.338,0.019
		c-0.307,0-0.553-0.092-0.735-0.275c-0.183-0.183-0.292-0.404-0.327-0.665l-0.036-0.655c-0.414,0.556-0.937,0.978-1.569,1.268
		C328.6,15.095,327.924,15.241,327.202,15.241z M327.61,14.07c0.557,0,1.073-0.104,1.553-0.311c0.479-0.206,0.842-0.481,1.09-0.824
		c0.225-0.225,0.337-0.455,0.337-0.691v-1.365c-0.757-0.295-1.542-0.443-2.358-0.443c-0.779,0-1.416,0.166-1.906,0.496
		c-0.49,0.331-0.735,0.763-0.735,1.295c0,0.26,0.05,0.503,0.15,0.727c0.101,0.225,0.242,0.42,0.426,0.586
		c0.183,0.165,0.399,0.295,0.647,0.39S327.326,14.07,327.61,14.07z"/>
	<path fill="#9A9A9A" d="M339.365,14.602c-0.094,0.047-0.219,0.104-0.372,0.168c-0.153,0.065-0.327,0.131-0.522,0.195
		c-0.195,0.065-0.408,0.118-0.639,0.16c-0.23,0.041-0.471,0.062-0.719,0.062c-0.566,0-1.058-0.156-1.471-0.47
		c-0.414-0.313-0.621-0.801-0.621-1.463V7.031h-1.259V5.807h1.259V2.722h1.561v3.085h2.074v1.224h-2.074v5.745
		c0.023,0.343,0.136,0.591,0.337,0.744c0.2,0.154,0.437,0.23,0.709,0.23c0.308,0,0.588-0.05,0.843-0.15
		c0.254-0.101,0.428-0.18,0.522-0.239L339.365,14.602z"/>
	<path fill="#9A9A9A" d="M340.82,4.07V2.12h1.561v1.95H340.82z M340.82,15.063V5.807h1.561v9.256H340.82z"/>
	<path fill="#9A9A9A" d="M348.941,15.241c-0.698,0-1.333-0.131-1.906-0.391s-1.063-0.608-1.472-1.046s-0.725-0.945-0.949-1.525
		c-0.225-0.579-0.336-1.188-0.336-1.826c0-0.649,0.115-1.265,0.346-1.844s0.549-1.088,0.957-1.525
		c0.408-0.437,0.898-0.785,1.472-1.046c0.573-0.26,1.202-0.39,1.889-0.39c0.685,0,1.317,0.13,1.897,0.39
		c0.578,0.261,1.072,0.609,1.48,1.046c0.408,0.438,0.727,0.946,0.957,1.525s0.346,1.194,0.346,1.844
		c0,0.639-0.112,1.247-0.336,1.826c-0.226,0.58-0.545,1.088-0.958,1.525c-0.414,0.438-0.907,0.786-1.481,1.046
		C350.274,15.11,349.638,15.241,348.941,15.241z M345.873,10.47c0,0.485,0.08,0.935,0.239,1.348
		c0.159,0.414,0.378,0.774,0.655,1.082c0.278,0.308,0.604,0.55,0.977,0.727c0.371,0.178,0.771,0.267,1.196,0.267
		c0.425,0,0.824-0.089,1.196-0.267c0.373-0.177,0.701-0.422,0.984-0.735s0.506-0.68,0.665-1.1c0.159-0.419,0.239-0.871,0.239-1.356
		c0-0.473-0.08-0.919-0.239-1.339c-0.159-0.419-0.382-0.786-0.665-1.099c-0.283-0.313-0.611-0.559-0.984-0.736
		c-0.372-0.178-0.771-0.266-1.196-0.266c-0.426,0-0.825,0.092-1.196,0.274c-0.373,0.184-0.698,0.432-0.977,0.745
		c-0.277,0.313-0.496,0.68-0.655,1.099C345.953,9.534,345.873,9.986,345.873,10.47z"/>
	<path fill="#9A9A9A" d="M363.551,15.063h-1.561V9.885c0-0.993-0.15-1.714-0.451-2.163c-0.303-0.449-0.76-0.674-1.375-0.674
		c-0.318,0-0.639,0.062-0.957,0.187c-0.319,0.124-0.621,0.292-0.904,0.505c-0.284,0.213-0.532,0.468-0.745,0.763
		c-0.212,0.296-0.372,0.62-0.479,0.976v5.585h-1.561V5.807h1.419v1.986c0.365-0.65,0.895-1.171,1.586-1.561
		c0.692-0.391,1.445-0.585,2.262-0.585c0.531,0,0.975,0.098,1.33,0.292c0.354,0.195,0.638,0.468,0.851,0.816
		s0.363,0.759,0.452,1.231c0.088,0.474,0.133,0.987,0.133,1.543V15.063z"/>
	<path fill="#9A9A9A" d="M378.108,5.116c-0.142-0.165-0.331-0.325-0.567-0.479s-0.503-0.293-0.798-0.417s-0.617-0.225-0.967-0.302
		c-0.348-0.076-0.712-0.115-1.09-0.115c-0.981,0-1.699,0.184-2.154,0.55c-0.455,0.367-0.683,0.869-0.683,1.508
		c0,0.343,0.064,0.626,0.194,0.851c0.131,0.225,0.334,0.417,0.612,0.576c0.278,0.16,0.624,0.299,1.037,0.417
		s0.904,0.242,1.472,0.372c0.65,0.142,1.238,0.305,1.765,0.488c0.525,0.183,0.976,0.41,1.347,0.683
		c0.373,0.271,0.656,0.603,0.852,0.992c0.195,0.391,0.293,0.869,0.293,1.437c0,0.603-0.119,1.126-0.355,1.569s-0.559,0.81-0.966,1.1
		c-0.407,0.289-0.89,0.502-1.444,0.638c-0.557,0.136-1.159,0.204-1.809,0.204c-0.971,0-1.889-0.15-2.758-0.452
		s-1.658-0.741-2.367-1.321l0.763-1.347c0.188,0.2,0.435,0.401,0.735,0.603c0.302,0.201,0.645,0.381,1.029,0.541
		c0.383,0.159,0.797,0.289,1.24,0.39s0.907,0.15,1.393,0.15c0.898,0,1.596-0.159,2.092-0.479s0.744-0.798,0.744-1.437
		c0-0.354-0.079-0.652-0.238-0.895c-0.16-0.242-0.394-0.452-0.701-0.63c-0.307-0.178-0.688-0.334-1.143-0.47
		c-0.456-0.136-0.973-0.275-1.553-0.417c-0.638-0.153-1.199-0.319-1.684-0.496c-0.485-0.178-0.89-0.391-1.215-0.639
		s-0.57-0.55-0.736-0.904c-0.165-0.354-0.248-0.78-0.248-1.276c0-0.603,0.112-1.135,0.338-1.596
		c0.224-0.461,0.537-0.852,0.939-1.171c0.401-0.318,0.88-0.559,1.436-0.718s1.158-0.239,1.809-0.239c0.852,0,1.619,0.13,2.305,0.39
		c0.686,0.261,1.295,0.609,1.827,1.047L378.108,5.116z"/>
	<path fill="#9A9A9A" d="M385.36,15.241c-0.697,0-1.336-0.128-1.914-0.382c-0.58-0.254-1.076-0.6-1.49-1.037
		s-0.736-0.948-0.967-1.534c-0.23-0.585-0.346-1.202-0.346-1.853c0-0.649,0.115-1.265,0.346-1.844s0.557-1.088,0.977-1.525
		c0.419-0.437,0.918-0.782,1.498-1.037c0.578-0.254,1.217-0.381,1.914-0.381s1.333,0.13,1.906,0.39
		c0.574,0.261,1.061,0.606,1.463,1.037c0.402,0.432,0.713,0.935,0.932,1.508s0.328,1.167,0.328,1.781
		c0,0.131-0.004,0.249-0.01,0.355s-0.015,0.188-0.026,0.248h-7.678c0.036,0.461,0.142,0.881,0.319,1.259s0.408,0.703,0.691,0.976
		c0.283,0.271,0.605,0.484,0.967,0.638c0.36,0.154,0.741,0.23,1.144,0.23c0.284,0,0.562-0.038,0.833-0.115
		c0.271-0.076,0.525-0.18,0.763-0.311c0.236-0.13,0.446-0.289,0.63-0.479c0.183-0.188,0.321-0.401,0.416-0.638l1.348,0.372
		c-0.154,0.343-0.363,0.656-0.629,0.939c-0.267,0.284-0.574,0.529-0.922,0.736c-0.35,0.207-0.736,0.369-1.162,0.487
		S385.821,15.241,385.36,15.241z M388.533,9.815c-0.035-0.438-0.145-0.843-0.328-1.215s-0.414-0.688-0.691-0.949
		c-0.277-0.26-0.6-0.463-0.966-0.611c-0.366-0.147-0.757-0.222-1.171-0.222s-0.804,0.074-1.17,0.222
		c-0.366,0.148-0.688,0.354-0.967,0.621c-0.277,0.266-0.502,0.582-0.674,0.948c-0.171,0.366-0.274,0.769-0.31,1.206H388.533z"/>
	<path fill="#9A9A9A" d="M391.122,10.417c0-0.65,0.112-1.265,0.337-1.844s0.543-1.085,0.957-1.517
		c0.414-0.431,0.908-0.773,1.48-1.028c0.574-0.254,1.215-0.381,1.924-0.381c0.923,0,1.718,0.204,2.386,0.611
		c0.667,0.408,1.173,0.955,1.516,1.641l-1.524,0.479c-0.236-0.438-0.568-0.777-0.993-1.02c-0.426-0.242-0.898-0.363-1.419-0.363
		c-0.426,0-0.827,0.086-1.205,0.257c-0.379,0.172-0.703,0.411-0.976,0.718c-0.272,0.308-0.487,0.668-0.647,1.082
		c-0.159,0.414-0.238,0.869-0.238,1.365c0,0.484,0.082,0.939,0.248,1.365c0.165,0.426,0.387,0.795,0.664,1.108
		s0.604,0.559,0.976,0.735c0.372,0.178,0.771,0.267,1.196,0.267c0.272,0,0.541-0.038,0.807-0.115
		c0.267-0.077,0.509-0.181,0.728-0.311s0.411-0.28,0.576-0.452c0.165-0.171,0.284-0.357,0.354-0.559l1.525,0.461
		c-0.143,0.343-0.34,0.656-0.594,0.939c-0.255,0.284-0.553,0.526-0.896,0.728c-0.342,0.201-0.724,0.36-1.143,0.479
		c-0.42,0.118-0.86,0.178-1.321,0.178c-0.698,0-1.336-0.131-1.915-0.391c-0.58-0.26-1.076-0.608-1.49-1.046
		c-0.413-0.438-0.735-0.949-0.966-1.534S391.122,11.068,391.122,10.417z"/>
	<path fill="#9A9A9A" d="M404.42,15.241c-0.969,0-1.701-0.325-2.198-0.976s-0.745-1.619-0.745-2.908v-5.55h1.561v5.249
		c0,1.891,0.656,2.837,1.969,2.837c0.638,0,1.238-0.204,1.799-0.612c0.562-0.407,0.979-0.966,1.25-1.676V5.807h1.561v7.341
		c0,0.366,0.166,0.556,0.496,0.567v1.348c-0.177,0.023-0.316,0.038-0.416,0.044c-0.101,0.006-0.198,0.009-0.293,0.009
		c-0.307,0-0.564-0.091-0.771-0.274c-0.207-0.183-0.316-0.41-0.328-0.683l-0.035-1.082c-0.414,0.698-0.957,1.232-1.631,1.605
		C405.963,15.054,405.225,15.241,404.42,15.241z"/>
	<path fill="#9A9A9A" d="M417.115,7.172c-0.779,0.024-1.469,0.225-2.065,0.604c-0.597,0.378-1.02,0.904-1.268,1.578v5.709h-1.561
		V5.807h1.454v2.146c0.319-0.638,0.738-1.155,1.259-1.552c0.521-0.396,1.075-0.617,1.667-0.664c0.117,0,0.219,0,0.301,0
		c0.083,0,0.154,0.006,0.213,0.018V7.172z"/>
	<path fill="#9A9A9A" d="M418.658,4.07V2.12h1.561v1.95H418.658z M418.658,15.063V5.807h1.561v9.256H418.658z"/>
	<path fill="#9A9A9A" d="M427.524,14.602c-0.094,0.047-0.219,0.104-0.372,0.168c-0.153,0.065-0.327,0.131-0.522,0.195
		c-0.195,0.065-0.408,0.118-0.639,0.16c-0.23,0.041-0.471,0.062-0.719,0.062c-0.566,0-1.058-0.156-1.471-0.47
		c-0.414-0.313-0.621-0.801-0.621-1.463V7.031h-1.259V5.807h1.259V2.722h1.561v3.085h2.074v1.224h-2.074v5.745
		c0.023,0.343,0.136,0.591,0.337,0.744c0.2,0.154,0.437,0.23,0.709,0.23c0.308,0,0.588-0.05,0.843-0.15
		c0.254-0.101,0.428-0.18,0.522-0.239L427.524,14.602z"/>
	<path fill="#9A9A9A" d="M429.404,17.581c0.153,0.023,0.308,0.042,0.461,0.054s0.272,0.018,0.354,0.018
		c0.143,0,0.27-0.033,0.381-0.098c0.113-0.065,0.225-0.192,0.338-0.381c0.111-0.189,0.238-0.452,0.381-0.789
		c0.142-0.337,0.318-0.777,0.531-1.321l-3.918-9.256h1.613l3.156,7.855l2.873-7.855h1.488l-4.503,11.685
		c-0.166,0.414-0.44,0.777-0.825,1.091c-0.384,0.313-0.912,0.47-1.586,0.47c-0.107,0-0.217-0.006-0.328-0.018
		c-0.113-0.012-0.252-0.035-0.417-0.071V17.581z"/>
</g>
<g enable-background="new    ">
	<path fill="#9A9A9A" d="M277.114,36.429c-0.887,0-1.693-0.181-2.421-0.541s-1.351-0.839-1.87-1.437
		c-0.521-0.597-0.922-1.279-1.206-2.048c-0.284-0.768-0.426-1.554-0.426-2.358c0-0.839,0.151-1.643,0.452-2.411
		c0.302-0.769,0.719-1.448,1.25-2.039c0.532-0.591,1.162-1.061,1.889-1.409s1.516-0.523,2.367-0.523
		c0.887,0,1.689,0.187,2.411,0.559s1.342,0.859,1.862,1.463c0.52,0.603,0.922,1.285,1.205,2.048s0.426,1.54,0.426,2.332
		c0,0.839-0.15,1.643-0.452,2.411s-0.716,1.445-1.241,2.03s-1.152,1.052-1.879,1.4C278.753,36.254,277.964,36.429,277.114,36.429z
		 M272.805,30.045c0,0.639,0.103,1.257,0.31,1.854s0.499,1.126,0.878,1.587c0.378,0.461,0.833,0.827,1.365,1.099
		c0.531,0.272,1.123,0.408,1.773,0.408c0.674,0,1.276-0.145,1.809-0.435c0.531-0.289,0.984-0.667,1.355-1.135
		c0.373-0.467,0.656-0.995,0.852-1.587c0.195-0.591,0.293-1.188,0.293-1.791c0-0.638-0.104-1.256-0.311-1.853
		s-0.502-1.123-0.887-1.578s-0.84-0.818-1.365-1.091c-0.525-0.271-1.107-0.407-1.746-0.407c-0.674,0-1.277,0.142-1.809,0.426
		c-0.532,0.283-0.984,0.655-1.357,1.116c-0.371,0.461-0.658,0.987-0.859,1.578C272.905,28.829,272.805,29.431,272.805,30.045z"/>
	<path fill="#9A9A9A" d="M293.177,24.567c-0.331,0-0.611,0.068-0.842,0.204s-0.42,0.31-0.567,0.522
		c-0.148,0.213-0.258,0.455-0.328,0.728c-0.071,0.271-0.106,0.544-0.106,0.815v0.248h2.784v1.224h-2.784v8.032h-1.561v-8.032h-2.694
		v8.032h-1.561v-8.032h-1.26v-1.224h1.26v-0.07c0.012-0.402,0.079-0.792,0.203-1.171c0.125-0.378,0.308-0.712,0.55-1.002
		c0.242-0.289,0.544-0.52,0.904-0.691c0.36-0.171,0.777-0.257,1.25-0.257c0.426,0,0.813,0.047,1.161,0.142
		c0.35,0.095,0.659,0.207,0.932,0.337c0.26-0.343,0.582-0.62,0.967-0.833c0.383-0.213,0.854-0.319,1.408-0.319
		c0.521,0,0.932,0.074,1.232,0.222c0.303,0.147,0.547,0.263,0.736,0.346l-0.391,1.152c-0.141-0.095-0.307-0.18-0.496-0.257
		S293.52,24.567,293.177,24.567z M289.773,27.084c0-0.225,0.024-0.487,0.071-0.789c0.047-0.301,0.117-0.547,0.213-0.735
		c-0.189-0.13-0.411-0.216-0.665-0.258c-0.255-0.041-0.481-0.062-0.683-0.062c-0.592,0-1.008,0.175-1.25,0.523
		s-0.37,0.759-0.381,1.231v0.089H289.773z"/>
	<path fill="#9A9A9A" d="M299.561,36.518c-0.697,0-1.336-0.128-1.915-0.382s-1.075-0.6-1.489-1.037s-0.736-0.948-0.967-1.534
		c-0.23-0.585-0.346-1.202-0.346-1.853c0-0.649,0.115-1.265,0.346-1.844s0.556-1.088,0.976-1.525
		c0.419-0.437,0.919-0.782,1.498-1.037c0.579-0.254,1.218-0.381,1.915-0.381s1.332,0.13,1.906,0.39
		c0.573,0.261,1.061,0.606,1.463,1.037c0.401,0.432,0.712,0.935,0.931,1.508s0.328,1.167,0.328,1.781
		c0,0.131-0.003,0.249-0.009,0.355s-0.016,0.188-0.027,0.248h-7.678c0.036,0.461,0.143,0.881,0.32,1.259
		c0.177,0.378,0.407,0.703,0.691,0.976c0.283,0.271,0.605,0.484,0.966,0.638c0.36,0.154,0.741,0.23,1.144,0.23
		c0.284,0,0.562-0.038,0.834-0.115c0.271-0.076,0.525-0.18,0.762-0.311c0.236-0.13,0.446-0.289,0.63-0.479
		c0.183-0.188,0.321-0.401,0.417-0.638l1.348,0.372c-0.154,0.343-0.363,0.656-0.63,0.939c-0.267,0.284-0.573,0.529-0.922,0.736
		s-0.735,0.369-1.161,0.487S300.022,36.518,299.561,36.518z M302.735,31.092c-0.035-0.438-0.145-0.843-0.328-1.215
		s-0.414-0.688-0.691-0.949c-0.277-0.26-0.6-0.463-0.967-0.611c-0.366-0.147-0.756-0.222-1.17-0.222s-0.805,0.074-1.17,0.222
		c-0.367,0.148-0.689,0.354-0.967,0.621c-0.277,0.266-0.502,0.582-0.674,0.948s-0.275,0.769-0.311,1.206H302.735z"/>
	<path fill="#9A9A9A" d="M313.976,36.34h-1.56v-5.178c0-0.993-0.151-1.714-0.453-2.163c-0.301-0.449-0.76-0.674-1.374-0.674
		c-0.319,0-0.638,0.062-0.958,0.187c-0.318,0.124-0.62,0.292-0.904,0.505c-0.283,0.213-0.531,0.468-0.744,0.763
		c-0.213,0.296-0.372,0.62-0.479,0.976v5.585h-1.561v-9.256h1.418v1.986c0.367-0.65,0.896-1.171,1.588-1.561
		c0.691-0.391,1.445-0.585,2.26-0.585c0.533,0,0.977,0.098,1.33,0.292c0.355,0.195,0.639,0.468,0.852,0.816s0.363,0.759,0.452,1.231
		c0.089,0.474,0.133,0.987,0.133,1.543V36.34z"/>
	<path fill="#9A9A9A" d="M319.65,36.518c-0.745,0-1.478-0.115-2.198-0.346c-0.722-0.231-1.342-0.564-1.862-1.002l0.674-1.047
		c0.544,0.414,1.087,0.725,1.632,0.932c0.543,0.207,1.116,0.31,1.719,0.31c0.674,0,1.209-0.133,1.605-0.398
		c0.396-0.266,0.594-0.642,0.594-1.126c0-0.225-0.053-0.417-0.16-0.576c-0.105-0.16-0.266-0.299-0.479-0.417
		s-0.484-0.225-0.815-0.319c-0.331-0.094-0.716-0.194-1.152-0.301c-0.556-0.143-1.034-0.278-1.437-0.408s-0.732-0.283-0.992-0.461
		c-0.261-0.178-0.449-0.39-0.568-0.639c-0.117-0.248-0.177-0.556-0.177-0.922c0-0.461,0.091-0.871,0.274-1.232
		c0.184-0.36,0.435-0.661,0.754-0.904c0.319-0.242,0.694-0.425,1.126-0.55c0.431-0.124,0.896-0.186,1.392-0.186
		c0.697,0,1.348,0.112,1.951,0.337c0.603,0.225,1.11,0.521,1.524,0.887l-0.71,0.939c-0.39-0.343-0.827-0.6-1.312-0.771
		c-0.485-0.171-0.981-0.257-1.489-0.257c-0.567,0-1.049,0.121-1.445,0.363s-0.594,0.63-0.594,1.161c0,0.213,0.038,0.391,0.115,0.532
		c0.076,0.142,0.203,0.266,0.381,0.372s0.404,0.201,0.684,0.284c0.277,0.083,0.611,0.171,1.001,0.266
		c0.614,0.142,1.149,0.287,1.604,0.435s0.834,0.322,1.135,0.523c0.302,0.201,0.526,0.438,0.674,0.709
		c0.148,0.271,0.223,0.603,0.223,0.993c0,0.862-0.332,1.549-0.994,2.057S320.772,36.518,319.65,36.518z"/>
	<path fill="#9A9A9A" d="M325.164,25.347v-1.95h1.561v1.95H325.164z M325.164,36.34v-9.256h1.561v9.256H325.164z"/>
	<path fill="#9A9A9A" d="M331.92,36.34l-3.653-9.256h1.614l2.925,7.891l2.943-7.891h1.489l-3.652,9.256H331.92z"/>
	<path fill="#9A9A9A" d="M342.559,36.518c-0.698,0-1.336-0.128-1.916-0.382c-0.579-0.254-1.075-0.6-1.489-1.037
		c-0.413-0.438-0.735-0.948-0.966-1.534c-0.23-0.585-0.346-1.202-0.346-1.853c0-0.649,0.115-1.265,0.346-1.844
		s0.555-1.088,0.975-1.525c0.42-0.437,0.92-0.782,1.498-1.037c0.58-0.254,1.218-0.381,1.916-0.381c0.697,0,1.332,0.13,1.906,0.39
		c0.572,0.261,1.061,0.606,1.463,1.037c0.4,0.432,0.711,0.935,0.93,1.508s0.328,1.167,0.328,1.781c0,0.131-0.002,0.249-0.008,0.355
		c-0.007,0.106-0.016,0.188-0.027,0.248h-7.678c0.035,0.461,0.143,0.881,0.319,1.259s0.407,0.703,0.691,0.976
		c0.284,0.271,0.606,0.484,0.966,0.638c0.361,0.154,0.742,0.23,1.145,0.23c0.283,0,0.561-0.038,0.833-0.115
		c0.272-0.076,0.526-0.18,0.763-0.311c0.236-0.13,0.445-0.289,0.629-0.479c0.184-0.188,0.322-0.401,0.417-0.638l1.348,0.372
		c-0.153,0.343-0.363,0.656-0.63,0.939c-0.266,0.284-0.572,0.529-0.922,0.736c-0.349,0.207-0.735,0.369-1.161,0.487
		C343.463,36.458,343.02,36.518,342.559,36.518z M345.733,31.092c-0.036-0.438-0.146-0.843-0.328-1.215
		c-0.184-0.372-0.414-0.688-0.691-0.949c-0.278-0.26-0.601-0.463-0.967-0.611c-0.367-0.147-0.757-0.222-1.17-0.222
		c-0.414,0-0.805,0.074-1.171,0.222c-0.366,0.148-0.688,0.354-0.966,0.621c-0.278,0.266-0.503,0.582-0.674,0.948
		c-0.172,0.366-0.275,0.769-0.311,1.206H345.733z"/>
	<path fill="#9A9A9A" d="M362.222,34.921v1.419h-8.546V23.751h8.387v1.418h-6.791v4.078h5.904v1.33h-5.904v4.344H362.222z"/>
	<path fill="#9A9A9A" d="M372.098,36.34h-1.561v-5.178c0-0.993-0.15-1.714-0.451-2.163c-0.303-0.449-0.76-0.674-1.375-0.674
		c-0.318,0-0.639,0.062-0.957,0.187c-0.319,0.124-0.621,0.292-0.904,0.505c-0.284,0.213-0.532,0.468-0.745,0.763
		c-0.212,0.296-0.372,0.62-0.479,0.976v5.585h-1.561v-9.256h1.419v1.986c0.365-0.65,0.895-1.171,1.586-1.561
		c0.692-0.391,1.445-0.585,2.262-0.585c0.531,0,0.975,0.098,1.33,0.292c0.354,0.195,0.638,0.468,0.851,0.816
		s0.363,0.759,0.452,1.231c0.088,0.474,0.133,0.987,0.133,1.543V36.34z"/>
	<path fill="#9A9A9A" d="M378.215,36.447c-0.627,0-1.203-0.13-1.729-0.391c-0.526-0.26-0.979-0.608-1.356-1.046
		c-0.378-0.437-0.671-0.939-0.878-1.507s-0.311-1.158-0.311-1.773c0-0.649,0.104-1.268,0.311-1.853s0.5-1.097,0.878-1.534
		c0.378-0.437,0.83-0.782,1.356-1.037c0.525-0.254,1.107-0.381,1.746-0.381c0.781,0,1.454,0.189,2.021,0.567
		c0.568,0.378,1.047,0.857,1.437,1.436v-1.844h1.383v9.149c0,0.662-0.124,1.244-0.372,1.746c-0.248,0.503-0.586,0.925-1.011,1.269
		c-0.426,0.343-0.925,0.603-1.499,0.78c-0.572,0.177-1.185,0.266-1.834,0.266c-1.053,0-1.906-0.181-2.562-0.541
		s-1.203-0.859-1.641-1.498l0.904-0.798c0.367,0.543,0.84,0.951,1.419,1.224c0.579,0.271,1.206,0.407,1.88,0.407
		c0.425,0,0.83-0.059,1.214-0.177s0.718-0.296,1.002-0.532s0.511-0.532,0.683-0.887s0.258-0.774,0.258-1.259v-1.631
		c-0.178,0.283-0.388,0.54-0.63,0.771c-0.243,0.23-0.505,0.426-0.789,0.586c-0.284,0.159-0.585,0.28-0.904,0.363
		C378.871,36.405,378.546,36.447,378.215,36.447z M378.694,35.17c0.331,0,0.65-0.06,0.958-0.178s0.591-0.274,0.851-0.47
		s0.479-0.417,0.656-0.665s0.295-0.502,0.355-0.763v-2.659c-0.131-0.319-0.299-0.608-0.506-0.869
		c-0.207-0.26-0.44-0.487-0.701-0.683c-0.26-0.195-0.54-0.346-0.842-0.452c-0.301-0.106-0.605-0.159-0.913-0.159
		c-0.473,0-0.896,0.101-1.268,0.301c-0.372,0.201-0.688,0.468-0.948,0.798c-0.261,0.331-0.461,0.707-0.604,1.126
		c-0.142,0.42-0.213,0.843-0.213,1.269c0,0.461,0.083,0.898,0.248,1.312c0.166,0.414,0.391,0.774,0.674,1.082
		c0.284,0.308,0.618,0.553,1.002,0.735C377.828,35.079,378.244,35.17,378.694,35.17z"/>
	<path fill="#9A9A9A" d="M385.591,25.347v-1.95h1.561v1.95H385.591z M385.591,36.34v-9.256h1.561v9.256H385.591z"/>
	<path fill="#9A9A9A" d="M397.701,36.34h-1.561v-5.178c0-0.993-0.15-1.714-0.451-2.163c-0.303-0.449-0.76-0.674-1.375-0.674
		c-0.318,0-0.639,0.062-0.957,0.187c-0.319,0.124-0.621,0.292-0.904,0.505c-0.284,0.213-0.532,0.468-0.745,0.763
		c-0.212,0.296-0.372,0.62-0.479,0.976v5.585h-1.561v-9.256h1.419v1.986c0.365-0.65,0.895-1.171,1.586-1.561
		c0.692-0.391,1.445-0.585,2.262-0.585c0.531,0,0.975,0.098,1.33,0.292c0.354,0.195,0.638,0.468,0.851,0.816
		s0.363,0.759,0.452,1.231c0.088,0.474,0.133,0.987,0.133,1.543V36.34z"/>
	<path fill="#9A9A9A" d="M404.227,36.518c-0.697,0-1.336-0.128-1.915-0.382s-1.075-0.6-1.489-1.037s-0.736-0.948-0.967-1.534
		c-0.23-0.585-0.346-1.202-0.346-1.853c0-0.649,0.115-1.265,0.346-1.844s0.556-1.088,0.976-1.525
		c0.419-0.437,0.919-0.782,1.498-1.037c0.579-0.254,1.218-0.381,1.915-0.381s1.332,0.13,1.906,0.39
		c0.573,0.261,1.061,0.606,1.463,1.037c0.401,0.432,0.712,0.935,0.931,1.508s0.328,1.167,0.328,1.781
		c0,0.131-0.003,0.249-0.009,0.355s-0.016,0.188-0.027,0.248h-7.678c0.036,0.461,0.143,0.881,0.32,1.259
		c0.177,0.378,0.407,0.703,0.691,0.976c0.283,0.271,0.605,0.484,0.966,0.638c0.36,0.154,0.741,0.23,1.144,0.23
		c0.284,0,0.562-0.038,0.834-0.115c0.271-0.076,0.525-0.18,0.762-0.311c0.236-0.13,0.446-0.289,0.63-0.479
		c0.183-0.188,0.321-0.401,0.417-0.638l1.348,0.372c-0.154,0.343-0.363,0.656-0.63,0.939c-0.267,0.284-0.573,0.529-0.922,0.736
		s-0.735,0.369-1.161,0.487S404.688,36.518,404.227,36.518z M407.401,31.092c-0.035-0.438-0.145-0.843-0.328-1.215
		s-0.414-0.688-0.691-0.949c-0.277-0.26-0.6-0.463-0.967-0.611c-0.366-0.147-0.756-0.222-1.17-0.222s-0.805,0.074-1.17,0.222
		c-0.367,0.148-0.689,0.354-0.967,0.621c-0.277,0.266-0.502,0.582-0.674,0.948s-0.275,0.769-0.311,1.206H407.401z"/>
	<path fill="#9A9A9A" d="M414.705,36.518c-0.697,0-1.336-0.128-1.914-0.382c-0.58-0.254-1.076-0.6-1.49-1.037
		s-0.736-0.948-0.967-1.534c-0.23-0.585-0.346-1.202-0.346-1.853c0-0.649,0.115-1.265,0.346-1.844s0.557-1.088,0.977-1.525
		c0.419-0.437,0.918-0.782,1.498-1.037c0.578-0.254,1.217-0.381,1.914-0.381s1.333,0.13,1.906,0.39
		c0.574,0.261,1.061,0.606,1.463,1.037c0.402,0.432,0.713,0.935,0.932,1.508s0.328,1.167,0.328,1.781
		c0,0.131-0.004,0.249-0.01,0.355s-0.015,0.188-0.026,0.248h-7.678c0.036,0.461,0.142,0.881,0.319,1.259s0.408,0.703,0.691,0.976
		c0.283,0.271,0.605,0.484,0.967,0.638c0.36,0.154,0.741,0.23,1.144,0.23c0.284,0,0.562-0.038,0.833-0.115
		c0.271-0.076,0.525-0.18,0.763-0.311c0.236-0.13,0.446-0.289,0.63-0.479c0.183-0.188,0.321-0.401,0.416-0.638l1.348,0.372
		c-0.154,0.343-0.363,0.656-0.629,0.939c-0.267,0.284-0.574,0.529-0.922,0.736c-0.35,0.207-0.736,0.369-1.162,0.487
		S415.166,36.518,414.705,36.518z M417.879,31.092c-0.035-0.438-0.145-0.843-0.328-1.215s-0.414-0.688-0.691-0.949
		c-0.277-0.26-0.6-0.463-0.966-0.611c-0.366-0.147-0.757-0.222-1.171-0.222s-0.804,0.074-1.17,0.222
		c-0.366,0.148-0.688,0.354-0.967,0.621c-0.277,0.266-0.502,0.582-0.674,0.948c-0.171,0.366-0.274,0.769-0.31,1.206H417.879z"/>
	<path fill="#9A9A9A" d="M425.983,28.45c-0.78,0.024-1.469,0.225-2.066,0.604c-0.596,0.378-1.02,0.904-1.268,1.578v5.709h-1.561
		v-9.256h1.455v2.146c0.318-0.638,0.738-1.155,1.258-1.552c0.521-0.396,1.076-0.617,1.668-0.664c0.117,0,0.218,0,0.301,0
		c0.082,0,0.153,0.006,0.213,0.018V28.45z"/>
	<path fill="#9A9A9A" d="M427.525,25.347v-1.95h1.561v1.95H427.525z M427.525,36.34v-9.256h1.561v9.256H427.525z"/>
	<path fill="#9A9A9A" d="M439.635,36.34h-1.561v-5.178c0-0.993-0.15-1.714-0.451-2.163c-0.303-0.449-0.76-0.674-1.375-0.674
		c-0.318,0-0.639,0.062-0.957,0.187c-0.319,0.124-0.621,0.292-0.904,0.505c-0.284,0.213-0.532,0.468-0.745,0.763
		c-0.212,0.296-0.372,0.62-0.479,0.976v5.585h-1.561v-9.256h1.419v1.986c0.365-0.65,0.895-1.171,1.586-1.561
		c0.692-0.391,1.445-0.585,2.262-0.585c0.531,0,0.975,0.098,1.33,0.292c0.354,0.195,0.638,0.468,0.851,0.816
		s0.363,0.759,0.452,1.231c0.088,0.474,0.133,0.987,0.133,1.543V36.34z"/>
	<path fill="#9A9A9A" d="M445.752,36.447c-0.627,0-1.203-0.13-1.729-0.391c-0.526-0.26-0.979-0.608-1.356-1.046
		c-0.378-0.437-0.671-0.939-0.878-1.507s-0.311-1.158-0.311-1.773c0-0.649,0.104-1.268,0.311-1.853s0.5-1.097,0.878-1.534
		c0.378-0.437,0.83-0.782,1.356-1.037c0.525-0.254,1.107-0.381,1.746-0.381c0.781,0,1.454,0.189,2.021,0.567
		c0.568,0.378,1.047,0.857,1.437,1.436v-1.844h1.383v9.149c0,0.662-0.124,1.244-0.372,1.746c-0.248,0.503-0.586,0.925-1.011,1.269
		c-0.426,0.343-0.925,0.603-1.499,0.78c-0.572,0.177-1.185,0.266-1.834,0.266c-1.053,0-1.906-0.181-2.562-0.541
		s-1.203-0.859-1.641-1.498l0.904-0.798c0.367,0.543,0.84,0.951,1.419,1.224c0.579,0.271,1.206,0.407,1.88,0.407
		c0.425,0,0.83-0.059,1.214-0.177s0.718-0.296,1.002-0.532s0.511-0.532,0.683-0.887s0.258-0.774,0.258-1.259v-1.631
		c-0.178,0.283-0.388,0.54-0.63,0.771c-0.243,0.23-0.505,0.426-0.789,0.586c-0.284,0.159-0.585,0.28-0.904,0.363
		C446.408,36.405,446.083,36.447,445.752,36.447z M446.231,35.17c0.331,0,0.65-0.06,0.958-0.178s0.591-0.274,0.851-0.47
		s0.479-0.417,0.656-0.665s0.295-0.502,0.355-0.763v-2.659c-0.131-0.319-0.299-0.608-0.506-0.869
		c-0.207-0.26-0.44-0.487-0.701-0.683c-0.26-0.195-0.54-0.346-0.842-0.452c-0.301-0.106-0.605-0.159-0.913-0.159
		c-0.473,0-0.896,0.101-1.268,0.301c-0.372,0.201-0.688,0.468-0.948,0.798c-0.261,0.331-0.461,0.707-0.604,1.126
		c-0.142,0.42-0.213,0.843-0.213,1.269c0,0.461,0.083,0.898,0.248,1.312c0.166,0.414,0.391,0.774,0.674,1.082
		c0.284,0.308,0.618,0.553,1.002,0.735C445.365,35.079,445.781,35.17,446.231,35.17z"/>
</g>
</svg>
